<svg id="_1" data-name="1" xmlns="http://www.w3.org/2000/svg" viewBox="0 0 1000 1000"><path d="M326.57,688.93H164.44A54.49,54.49,0,0,0,110,744.6c2,88.53,49.21,251.5,139.61,251.5h87.36V688.93Z" fill="#2f8388"/><path d="M790,996.18H249.56s84.25-5.38,82.18-497.89c-.53-127.67-42.21-325.15-66-427.64A54.5,54.5,0,0,1,318.82,3.82H790a54.46,54.46,0,0,1,53.43,43.8c15.93,79.9,46.64,259,46.64,452.38s-30.71,372.48-46.64,452.38A54.46,54.46,0,0,1,790,996.18Z" fill="#3f929b"/><path d="M595.67,909.62q111-94.27,223.24-189.37c6.88-5.8,5.09-17.26-2.7-17.25l-392.89.36c-7.77,0-11.72,11.5-6,17.3q93.12,95,168.42,189C588.05,912.56,592.21,912.55,595.67,909.62Z" fill="#016868"/><path d="M702.1,703.1l-164.67.16a2200,2200,0,0,0-39-597.2c-1.85-9,3.85-16.34,12.81-16.32l158.09.32c9,0,17.46,7.34,18.91,16.37A2188.94,2188.94,0,0,1,702.1,703.1Z" fill="#016868"/><path d="M577.1,160.62l1.58.07c.21.1.87.54,2,1.32s1.8,1.27,2,1.47.54.24,1,.44a4.39,4.39,0,0,1,.86.44,4.66,4.66,0,0,1,.73.15c.39.1.84.2,1.33.29l1.47.3a5.88,5.88,0,0,0,1,.15h.86c.38,0,1.21.05,2.51.15l4.24.3,4.24.3q1.94.15,2.37.15l9.81,0h9.53c.28,0,.89-.05,1.82-.14s2-.2,3.09-.29l3.22-.29c1-.09,1.78-.14,2.26-.14s1.1-.24,2.21-.43a20.28,20.28,0,0,0,2.07-.44c.17-.1.57-.29,1.19-.58s1.31-.59,2.08-.88,1.45-.58,2.07-.87a3.79,3.79,0,0,1,1.22-.44l1.48-.07c.89-.05,1.58-.07,2-.07s1.15,0,2,.08l1.57.07a9.88,9.88,0,0,1,1.61.74,17.68,17.68,0,0,1,2.08,1.17,1.28,1.28,0,0,1,.54.29.92.92,0,0,1,.44.59,1.94,1.94,0,0,1,.69.81c.25.44.44.75.56,1,.14,1,.36,2.66.64,5s.61,4.91,1,7.54.74,5.3,1.11,7.7.61,4.08.74,5.05c0,.2.12.74.28,1.62s.35,1.83.58,2.86.45,2.05.67,3.08.42,1.83.59,2.42c0,.09.1.41.26.95s.33,1.12.5,1.76.34,1.2.49,1.69a5.82,5.82,0,0,1,.27,1c0,.19.12.78.29,1.76s.27,1.71.33,2.2.14,1.56.25,3.23c-.07.19-.33,1-.77,2.34a17.58,17.58,0,0,1-1.26,3.08c0,.1-.06.25-.23.44a1.71,1.71,0,0,1-.51.44,9.62,9.62,0,0,1-1.26,1.18,4.51,4.51,0,0,1-1,.73c-.09,0-.42,0-1,.07s-.93.07-1.12.07-.7,0-1.27-.07l-1-.08-1.64-.81c-.89-.44-1.59-.81-2.1-1.1a2.36,2.36,0,0,1-1.18-1.1c-.3-.54-.58-1.06-.82-1.55a6.11,6.11,0,0,1-.74-1.47,7,7,0,0,1-.44-1.32,11.6,11.6,0,0,1-.89-2.64c-.36-1.37-.62-2.3-.77-2.79,0-.29-.17-.93-.39-1.91s-.45-2.05-.69-3.22-.48-2.3-.71-3.38-.39-1.86-.45-2.35-.26-1.63-.56-3.15-.61-3.15-.94-4.91-.65-3.42-1-5-.5-2.63-.58-3.22a6.3,6.3,0,0,0-.91-.95,5.56,5.56,0,0,0-1-.81q-1.57-.15-1.86-.15c-.28,0-.75,0-1.41.07l-1.12.07c-.47,0-1.13.05-2,.14s-1.73.2-2.66.29l-2.57.29q-1.18.15-1.47.15a2,2,0,0,0-.87.36,4,4,0,0,0-.71.51,13.9,13.9,0,0,0-.26,1.62,7.8,7.8,0,0,0-.07,2.05,15.35,15.35,0,0,0,0,2c0,1,.09,2.05.16,3.22s.13,2.28.18,3.3.1,1.79.17,2.28q0,.28.18,1.32c.09.68.19,1.41.29,2.2s.22,1.66.32,2.34.15,1.13.17,1.32a11.2,11.2,0,0,1-.07,1.62,13.48,13.48,0,0,1-.29,2.05,8.69,8.69,0,0,0-.24,1.39,8.67,8.67,0,0,1-.24,1.4c-.07.19-.17.51-.3,1a3,3,0,0,1-.32.81q-.36.44-.9,1.17c-.36.49-.74,1-1.15,1.47s-.77.92-1.09,1.32-.54.58-.63.58c-1,.1-1.62.15-1.81.15-.37,0-.87,0-1.48-.08l-1.07-.07a2.22,2.22,0,0,1-.89-.37c-.41-.25-.71-.42-.91-.52l-2.16-2c-1-.93-1.62-1.5-1.84-1.69a12.08,12.08,0,0,1-.58-1.25c-.28-.64-.49-1.15-.63-1.54a10.06,10.06,0,0,1-.47-1.4l-.54-1.91c-.18-.63-.34-1.24-.46-1.83s-.21-1-.23-1.17c-.1-.69-.29-1.94-.59-3.75s-.59-3.74-.88-5.79-.53-3.84-.74-5.64-.37-3.06-.47-3.74l-1-1c-2.19-.1-4-.2-5.57-.3l-4.65-.3q-2.36-.15-3.93-.3h-1.42a45.45,45.45,0,0,0-6.94.5,47.55,47.55,0,0,1-7.07.5c-.38,0-.92,0-1.64-.08l-1.22-.07a3.67,3.67,0,0,1-.82-.3,3.9,3.9,0,0,1-1-.58c-.22-.2-.57-.49-1.06-.88a4.72,4.72,0,0,1-.91-.89,8.64,8.64,0,0,1-1.19-1.68q-.86-1.4-1.23-2a7.08,7.08,0,0,1-.8-1.47,9.15,9.15,0,0,1-.47-1.17c0-.2-.14-.71-.32-1.54s-.3-1.44-.37-1.83-.15-1.1-.22-1.83-.12-1.15-.13-1.25a7.29,7.29,0,0,1,.46-1.54c.32-.92.54-1.58.67-2a2.41,2.41,0,0,1,1-1.17,10.83,10.83,0,0,1,1.37-.73c.54-.2,1.33-.54,2.39-1a12.86,12.86,0,0,1,1.73-.73l1.77-.07c1.08-.05,1.86-.07,2.34-.07S576.15,160.56,577.1,160.62Z" fill="#f1f9fa"/><path d="M663.51,225.33a2.38,2.38,0,0,1,1,.37,4.56,4.56,0,0,1,.83.51,5.47,5.47,0,0,1,1,.81l1.49,1.4c.52.49,1,1,1.41,1.39s.74.76.95,1a5.9,5.9,0,0,1,.58.81,3,3,0,0,1,.46.95,11,11,0,0,1,.77,2,11.08,11.08,0,0,0,.61,1.69l.15,1.47.15,1.32c-.1,0-.21.24-.35.73a2.71,2.71,0,0,1-.45,1c-.15.29-.32.66-.51,1.1s-.39.9-.62,1.4l-.63,1.32a2.09,2.09,0,0,0-.27.73c-.17.2-.41.51-.74,1a3.28,3.28,0,0,1-.75.8l-.86.52a2,2,0,0,1-.86.36l-25,0a7.47,7.47,0,0,0-1.1.15c-.55.09-1.17.21-1.85.36s-1.32.27-1.91.37-.94.14-1,.14-.72.05-1.59.15l-2.76.29c-1,.09-1.86.19-2.68.29s-1.34.14-1.52.14-.65.05-1.38.15l-2.41.29c-.87.09-1.7.19-2.47.29s-1.27.15-1.45.15c-2.67.29-5.48.5-8.43.65a51.65,51.65,0,0,0-8.52,1.09c-.27.09-.94.27-2,.51s-2.24.54-3.45.88-2.34.63-3.38.88-1.69.41-2,.51h-1.81c-.39-.1-1.14-.25-2.28-.45a20.29,20.29,0,0,1-2.15-.44c-.19-.1-.51-.25-1-.44a1.83,1.83,0,0,1-.84-.59,3.79,3.79,0,0,1-.86-.74c-.37-.39-.75-.83-1.13-1.32a18.54,18.54,0,0,0-1.22-1.4,6.33,6.33,0,0,1-.82-1c-.23-.39-.62-1.05-1.15-2l-1-1.69c0-.1-.08-.42-.19-.95s-.19-1-.23-1.25-.07-.74-.1-1.33-.05-.93-.06-1a3.27,3.27,0,0,1,.18-.81,2.9,2.9,0,0,1,.43-1c.23-.39.49-.9.79-1.54s.58-1.25.88-1.83.67-1.28,1.13-2.06a3.17,3.17,0,0,1,1.46-.59c.82-.19,1.45-.34,1.91-.43H594.3c.28,0,1,0,2.09-.07s2.37-.12,3.75-.22l4-.28c1.29-.1,2.26-.2,2.9-.29q.28,0,1.53-.15c.83-.1,1.72-.19,2.69-.29l2.77-.29c.87-.1,1.4-.14,1.59-.14h1.68q1,0,2.79-.15l3.53-.28,3.19-.29c1-.1,1.54-.15,1.73-.15a5.56,5.56,0,0,0,.76-.14c.41-.1.86-.2,1.36-.3s1-.19,1.37-.29a4.39,4.39,0,0,1,.75-.14c.28,0,.91-.05,1.88-.15s2-.19,3.19-.29,2.24-.19,3.25-.29,1.67-.14,2-.14c.55-.1,1.28-.2,2.21-.29l2.7-.29,2.42-.29c.73-.1,1.15-.15,1.24-.15a9.13,9.13,0,0,0,1.51-.29c.82-.19,1.71-.39,2.67-.58s1.84-.39,2.66-.59a10.46,10.46,0,0,1,1.51-.29h3.51Z" fill="#f1f9fa"/><path d="M615.5,261.71a2.78,2.78,0,0,1,1.27.15,7.19,7.19,0,0,1,1.76.88,14.74,14.74,0,0,1,1.35.88,15.38,15.38,0,0,0,1.34.89,1.77,1.77,0,0,1,.43.07,2.23,2.23,0,0,0,.56.08,1.69,1.69,0,0,0,.41-.08,1.64,1.64,0,0,1,.41-.07c.17-.2.5-.56,1-1.1s1-1.1,1.62-1.69,1.13-1.13,1.64-1.62a11.86,11.86,0,0,1,1.14-1,7.49,7.49,0,0,1,1.48-.44c.82-.2,1.45-.35,1.9-.44h2.51a5.33,5.33,0,0,1,1.29.37l1.45.52c.19.09.51.27,1,.51a2.84,2.84,0,0,0,.8.37,14.47,14.47,0,0,1,.89,1.18,17.33,17.33,0,0,1,1.07,1.62,3.49,3.49,0,0,1,.66,1,3.41,3.41,0,0,0,.5.81l.3,3c.08.83.17,1.66.25,2.5a9,9,0,0,0-.61,1.54,22.48,22.48,0,0,1-.83,2.13c-.15.39-.49,1.18-1,2.36s-.87,1.91-1,2.2l-.37.44a1.82,1.82,0,0,1-.51.44h-6.79a3.18,3.18,0,0,1-.79-.3,3.33,3.33,0,0,1-1-.59c-.2-.1-.66-.39-1.41-.88a13.57,13.57,0,0,1-1.42-1l-.94-.44a3.52,3.52,0,0,1-.81-.44h-.83a3.41,3.41,0,0,0-.81.88c-.37.49-.64.83-.8,1a22.94,22.94,0,0,0-1.67,2.72,11.82,11.82,0,0,1-1.94,2.72c-.17.1-.46.24-.85.44s-.69.34-.86.44a13.41,13.41,0,0,1-1.35.37c-.63.15-1.28.31-1.95.51l-2,.59a5.53,5.53,0,0,1-1.35.29,7.65,7.65,0,0,0-1.1.15l-1.83.29c-.68.1-1.32.19-1.91.29s-.93.15-1,.15l-1.74.59c-.89.29-1.83.58-2.81.88s-1.93.58-2.82.88a7.6,7.6,0,0,1-1.75.44h-5.94a2.46,2.46,0,0,1-.94-.37l-.95-.52-1.31-1.25-1.77-1.69-1.7-1.62-.92-.89a10.92,10.92,0,0,1-.56-1.32c-.26-.69-.45-1.18-.58-1.48l-.09-.88c0-.3-.07-.59-.1-.88a3.27,3.27,0,0,1,.12-.74c.1-.39.21-.83.34-1.32s.26-1,.4-1.4a10.34,10.34,0,0,0,.29-1.11,2.67,2.67,0,0,0,.44-1c.13-.5.24-.74.34-.74a3.64,3.64,0,0,1,.65-1c.37-.44.63-.76.8-.95s.43-.27.77-.52a1.61,1.61,0,0,1,.79-.36c.09,0,.43,0,1-.15s1.22-.19,1.91-.29l1.84-.29a7.57,7.57,0,0,1,1.09-.15,4.25,4.25,0,0,0,1.27-.44,4.81,4.81,0,0,1,1.27-.44,3,3,0,0,1,1.32-.07l1.18.07c.64-.09,1.59-.26,2.87-.51s2-.36,2.18-.36.88-.39,1.84-.88,2-1,3.11-1.47l3.11-1.39q1.46-.66,1.86-.81c0-.1.26-.15.82-.15h3.06Z" fill="#f1f9fa"/><path d="M571.29,295.58l1.19.08a5.23,5.23,0,0,1,.77.15l1.35.29,1.34.3a7.75,7.75,0,0,0,.78.15H592.2c.09,0,.43-.05,1-.14l1.84-.3c.64-.09,1.25-.19,1.84-.29a8.88,8.88,0,0,1,1.16-.15,13.18,13.18,0,0,0,1.37-.14c.73-.1,1.52-.2,2.39-.29l2.39-.3c.73-.09,1.18-.14,1.37-.14a18.57,18.57,0,0,1,1.84-.29l2.25-.3c.73-.09,1.64-.24,2.73-.44a4.5,4.5,0,0,0,.87-.21,12.37,12.37,0,0,0,1.54-.59q.8-.37,1.53-.66a3.29,3.29,0,0,1,1-.3l1.58-.07c1-.05,1.68-.07,2.14-.07s1.48.05,3.06.15a10.34,10.34,0,0,0,.82.66,15.2,15.2,0,0,1,1.43,1.26c.51.49,1,1,1.45,1.47a13.13,13.13,0,0,1,1,1.18,15.22,15.22,0,0,1,.63,1.62,9,9,0,0,1,.53,2.06c.24,1.57.37,2.56.4,3s.08,1.15.11,2,0,1.3,0,1.4,0,.46,0,1.1,0,1.33,0,2.06-.06,1.5-.08,2.29a17.24,17.24,0,0,1-.13,1.76,9.57,9.57,0,0,1,0,1.26c-.05.54-.1,1.1-.14,1.69s-.09,1.11-.15,1.55a4.59,4.59,0,0,0-.06,1c-.1,1-.23,1.93-.39,2.87a6.94,6.94,0,0,1-1,2.58l-.72,1.32c-.32.59-.68,1.23-1.09,1.92s-.78,1.32-1.15,1.91a9,9,0,0,0-.66,1.18,10.24,10.24,0,0,0-.74,1.11,15.59,15.59,0,0,1-1.11,1.62c-.42.54-.81,1.08-1.18,1.62s-.64.91-.8,1.1l-2.39,2.8a6.07,6.07,0,0,1-1,.81c-.48.35-1,.71-1.49,1.11s-1,.76-1.43,1.1a8.75,8.75,0,0,1-.9.67,9.85,9.85,0,0,1-1.54.44c-.86.19-1.46.34-1.82.44h-5.88l-2.28-1.18c-1.32-.69-2.32-1.23-3-1.62a7.41,7.41,0,0,0-1.31-.89,7.21,7.21,0,0,1-1.3-.89l-.82-.81-1.11-1.1-1.12-1.11-.67-.67a5.11,5.11,0,0,1-.54-.73l-.87-1.33c-.31-.49-.61-1-.88-1.48s-.46-.83-.56-1a4,4,0,0,1-.67-1.33,10.64,10.64,0,0,0-.52-1.32,8.8,8.8,0,0,0-.25-1.26c-.13-.54-.28-1.1-.42-1.69s-.28-1.13-.42-1.62a7.1,7.1,0,0,1-.21-.89c-.19-2.11-.39-4.22-.58-6.34l-.92-1-18.72,0a5.67,5.67,0,0,1-1.17-.66,9.61,9.61,0,0,1-1.48-1.11l-1.06-1c-.5-.44-.81-.71-.91-.81l-1.1-2c-.5-.93-.81-1.5-.93-1.69-.11-1.18-.19-1.92-.22-2.21s-.08-.74-.14-1.33-.1-.94-.11-1a3.24,3.24,0,0,1,.2-.81,3.08,3.08,0,0,1,.45-1,18.9,18.9,0,0,1,1.16-2.06c.56-.88.91-1.43,1.08-1.62a9.09,9.09,0,0,1,1-.81c.61-.44,1-.76,1.29-1a2.48,2.48,0,0,1,.9-.58,3.33,3.33,0,0,1,.8-.3c1.28-.1,2.06-.14,2.33-.14S570.6,295.53,571.29,295.58ZM608.68,312a5.89,5.89,0,0,1-.61.08l-1.75.44a7.3,7.3,0,0,0-1.47.44,3.58,3.58,0,0,0-.83.81l-.8.95a11.81,11.81,0,0,0-.36,1.4,6.52,6.52,0,0,0-.22,1.4,10.59,10.59,0,0,0,.49,1.62c.3.89.52,1.57.66,2.07.1.19.29.49.55.88s.45.69.56.89.53.54,1,1,.72.74.81.74c.65.09,1.07.15,1.25.15a10.48,10.48,0,0,0,1.22-.15,2.43,2.43,0,0,0,.87-.29,2.94,2.94,0,0,0,.84-.59c.17-.2.44-.5.82-.89a3.25,3.25,0,0,0,.68-.88,3.32,3.32,0,0,0,.33-.88c.15-.5.25-.84.33-1a5.11,5.11,0,0,0,.42-1.47,4.28,4.28,0,0,1,.31-1.18c0-.64-.11-1.27-.16-1.91l-.15-1.77-.45-.44a2.72,2.72,0,0,0-.59-.45,3.83,3.83,0,0,0-.95-.59,3.42,3.42,0,0,0-.78-.29,11.22,11.22,0,0,0-1.25-.15A4.83,4.83,0,0,0,608.68,312Z" fill="#f1f9fa"/><path d="M636.13,346.86c.54,0,1.3.05,2.26.15l2.88.29,2.68.3c.83.1,1.33.15,1.51.15a18.81,18.81,0,0,0,2.07.44c1.11.2,1.84.35,2.21.45s.75.27,1.4.51,1.07.42,1.26.52.54.32,1.06.67,1.07.68,1.63,1,1.09.69,1.56,1a10.73,10.73,0,0,1,1,.81l4.48,4.58A13.13,13.13,0,0,1,663,359c.45.69.77,1.23,1,1.62s.47.74.82,1.33.72,1.23,1.12,1.92.77,1.33,1.12,1.92.57,1,.67,1.18l.83,1.62c.45.89.93,1.85,1.43,2.88l1.43,2.95a8.46,8.46,0,0,0,1,1.7c.1.19.39.64.87,1.33a14,14,0,0,1,.87,1.33,7.09,7.09,0,0,1,.39,1.18c.16.59.35,1.2.56,1.84s.39,1.28.55,1.92a14.23,14.23,0,0,0,.4,1.4,2,2,0,0,0,.08.44,1.74,1.74,0,0,1,.09.45,3,3,0,0,1,0,.59,1.62,1.62,0,0,0-.05.44,6.25,6.25,0,0,1-.29,1.33c-.2.68-.34,1.13-.42,1.33a9.62,9.62,0,0,0-.7,1.18,17.12,17.12,0,0,0-.81,1.62c-.34.49-.81,1.2-1.4,2.14a5.74,5.74,0,0,1-1,1.4c0,.1-.22.24-.66.44a2.69,2.69,0,0,0-.92.59,19.93,19.93,0,0,0-2.45,1,13,13,0,0,1-1.66.74,8.56,8.56,0,0,1-1.09-.29,8.26,8.26,0,0,1-1.5-.6l-1.86-1a3.93,3.93,0,0,1-1.45-1,10,10,0,0,1-1.89-1.7,17.26,17.26,0,0,1-1.63-1.84,4.23,4.23,0,0,1-.46-1.18c-.21-.69-.37-1.23-.47-1.63q0-.15-.18-1c-.11-.54-.23-1.1-.35-1.69s-.23-1.18-.35-1.77-.18-.94-.18-1a26.6,26.6,0,0,1-1-2.65c-.48-1.38-.82-2.32-1-2.81s-.53-1.06-1-2-.73-1.5-.83-1.7l-5.31-5.46a12.67,12.67,0,0,1-1.07-.89c-.43-.39-.88-.79-1.35-1.18l-1.28-1a2.11,2.11,0,0,0-.71-.45,17,17,0,0,0-2.54-.51,22.54,22.54,0,0,0-3.35-.37c-.1-.1-.41-.15-1-.15h-2.44c-.46,0-.72,0-.81.14s-.9.1-2.15.3a20.88,20.88,0,0,0-2.82.58,45.44,45.44,0,0,0-5.42,1.25,7.61,7.61,0,0,0-4.34,3.32,3.38,3.38,0,0,0-.35.81l-.35,1a3.18,3.18,0,0,0-.46,1.33,9.73,9.73,0,0,1-.33,1.33q-.48,3.39-.76,6.64a45.76,45.76,0,0,0-.1,6.64c.06,1.08.11,2.17.17,3.25,0,.09.07.46.19,1.1s.25,1.33.38,2.07.25,1.4.37,2a10.34,10.34,0,0,1,.2,1.18c0,.09,0,.54.13,1.33s.13,1.37.15,1.77,0,.74,0,1.33,0,.93,0,1a3.38,3.38,0,0,1-.29.89l-.67,1.62c-.24.59-.48,1.16-.73,1.7a9.75,9.75,0,0,0-.48,1.25c-.17.2-.44.52-.83,1a4.37,4.37,0,0,1-.83.81c-.18.1-.46.27-.85.52s-.85.52-1.38.81-1,.59-1.5.89a7.42,7.42,0,0,1-1.12.59h-.8l-1.83-.45a9.18,9.18,0,0,1-1.57-.44l-.9-.52a4.58,4.58,0,0,1-.76-.52c-.19-.2-.49-.49-.91-.88l-1.34-1.26c-.47-.44-.92-.89-1.34-1.33a4.77,4.77,0,0,1-.79-1,3.57,3.57,0,0,1-.59-1,3,3,0,0,1-.31-1c-.08-1.43-.15-2.85-.23-4.28-.08-1.63-.17-3.25-.26-4.87,0-.4,0-1.11,0-2.14s.06-2.15.08-3.33.05-2.28.08-3.32,0-1.75,0-2.14a9.45,9.45,0,0,1,.29-1.77,11,11,0,0,0,.3-1.77,8.09,8.09,0,0,0,.23-1.7c.08-.93.2-1.92.36-2.95s.28-2,.36-2.88a7.56,7.56,0,0,1,.23-1.62,7.32,7.32,0,0,1,.32-1.26c.23-.73.49-1.6.78-2.58s.59-2,.89-2.95.51-1.77.65-2.36c.08-.2.22-.51.41-1a5.09,5.09,0,0,1,.42-.81c.16-.29.42-.79.78-1.47s.58-1.13.66-1.33a13.37,13.37,0,0,1,1.5-1.84,17.23,17.23,0,0,1,1.65-1.7,7.52,7.52,0,0,1,1.16-1,8.6,8.6,0,0,0,1.15-.95c.27-.1.69-.28,1.26-.52s1.14-.52,1.71-.81,1.12-.57,1.65-.81l1-.51a4.94,4.94,0,0,1,1.13-.37l1.94-.52,2.07-.59,1.54-.44c.45-.1,1.3-.24,2.56-.44s2.06-.34,2.42-.44.84-.05,1.7-.14,1.8-.2,2.84-.3l3.12-.29a22.67,22.67,0,0,1,2.37-.14h1.64Z" fill="#f1f9fa"/><path d="M600.53,454.9a.82.82,0,0,1-.07-.29c-.56-1.19-1.13-2.37-1.7-3.55a5.83,5.83,0,0,1-.57-1.48,6.13,6.13,0,0,1-.31-1.33c0-.1,0-.84-.14-2.21s-.15-2.42-.17-3.11,0-1.5,0-2.73v-2a12.64,12.64,0,0,1,.58-2.52c.39-1.38.66-2.36.82-2.95.08-.2.31-.64.68-1.33a9.73,9.73,0,0,1,.82-1.33,16.89,16.89,0,0,1,1.34-1.7l2-2.28c.69-.79,1.33-1.51,1.93-2.15s1-1.05,1.15-1.25q.64-.58,2.4-1.92a15.92,15.92,0,0,1,2.41-1.62,6.83,6.83,0,0,1,1.45-.74c.7-.3,1.45-.59,2.24-.89l2.18-.81a5.12,5.12,0,0,1,1.4-.37c.18,0,.78,0,1.81-.07s1.8-.07,2.34-.07,1.34,0,2.42.07l1.74.08a5.55,5.55,0,0,1,1.58.74c.86.49,1.48.83,1.85,1l.77.89.9,1a18.54,18.54,0,0,1,1.48,1.92c.61.89,1,1.43,1.19,1.63.19.39.51,1,.94,1.92s.88,1.79,1.35,2.73.91,1.85,1.29,2.73a16.63,16.63,0,0,0,.85,1.78c0,.09.13.51.37,1.25l.8,2.44c.29.89.56,1.75.8,2.58s.46,1.5.65,2a9.64,9.64,0,0,1,.58,1.92,11.67,11.67,0,0,1,.3,1.62,1.7,1.7,0,0,1,.16.89c0,.49,0,.84,0,1s0,.54,0,1,0,.74-.12.74a12,12,0,0,1-.23,1.84,6.66,6.66,0,0,1-.49,1.85c-.08.3-.32.91-.7,1.85a17.78,17.78,0,0,1-.83,1.84l-1.56,1.77a21.41,21.41,0,0,0-1.84,1.48,13.48,13.48,0,0,1-1.44,1.18,11.32,11.32,0,0,1-1.25.52,9.56,9.56,0,0,0-1.25.52c-.27.09-.68.27-1.25.51s-1.15.52-1.72.81-1.11.57-1.64.82-.88.41-1,.51l-3.29,1.85-4.53,2.58q-2.3,1.33-4.26,2.44l-2.49,1.4a50,50,0,0,0-4.77,3.55,8,8,0,0,1-5.33,1.92h-1.32a7.59,7.59,0,0,0-1.2-.44,7.64,7.64,0,0,1-1.19-.45c-.19-.2-.61-.64-1.29-1.33a10.46,10.46,0,0,1-1.28-1.48,17.61,17.61,0,0,1-.9-1.84c-.42-.94-.68-1.55-.77-1.85q-.17-1.77-.18-2.22c0-.29,0-1,.08-2.21a2.92,2.92,0,0,1,.31-1c.2-.49.43-1,.68-1.62s.51-1.16.76-1.7.46-1,.63-1.26c.08-.1.27-.37.58-.81s.61-.91,1-1.4l1-1.41c.3-.44.49-.71.58-.81a1.27,1.27,0,0,1,.12-.44A.67.67,0,0,0,600.53,454.9Zm18.31-18.53c-.45.05-.71.07-.8.07a3.12,3.12,0,0,0-1.18.74,10.4,10.4,0,0,0-1.17,1,20.31,20.31,0,0,0-1.8,2c-.78.93-1.25,1.5-1.42,1.69a4,4,0,0,0-.36,1.19c-.16.68-.28,1.18-.36,1.47a2.32,2.32,0,0,1,0,.45,2.32,2.32,0,0,0-.05.59,6.41,6.41,0,0,0,.16.88,2.4,2.4,0,0,0,.36,1,4.12,4.12,0,0,0,.49.82,3.58,3.58,0,0,0,.74.44l.88.44a.61.61,0,0,0,.8,0,5.39,5.39,0,0,0,1.25-.36,11.32,11.32,0,0,0,1.25-.52c.44-.2,1-.52,1.84-1s1.27-.72,1.45-.81a20.92,20.92,0,0,0,1.74-1.92,12.92,12.92,0,0,0,1.35-1.78c.09,0,.13-.14.12-.44s0-.54,0-.74,0-.49,0-.88-.06-.59-.15-.59a3.24,3.24,0,0,0-.3-1,3.31,3.31,0,0,0-.56-1l-.9-1c-.41-.49-.67-.74-.75-.74s-.34,0-.74-.07a8.27,8.27,0,0,0-.87-.08C619.59,436.29,619.28,436.32,618.84,436.37Z" fill="#f1f9fa"/><path d="M624.28,480.54c.62,0,1.26.12,1.92.22l2,.3a7.68,7.68,0,0,1,1.39.29l.87.45.86.44c.26.3.71.79,1.33,1.48a8,8,0,0,1,1.06,1.33,4.8,4.8,0,0,1,.54,1.85,11.41,11.41,0,0,0,.41,1.84,3.92,3.92,0,0,0,.4,1c.26.54.53,1.11.79,1.7s.51,1.16.73,1.7.37.91.46,1.11.22.54.4,1,.35,1,.53,1.48.32.94.46,1.33a3.29,3.29,0,0,1,.19.74c.17,1.08.3,2,.39,2.66s.17,1.38.26,2.07.17,1.23.25,1.62V506c-.09,1.08-.19,2.49-.29,4.21s-.2,3.4-.3,5-.21,3.06-.3,4.29-.16,1.89-.16,2a6.36,6.36,0,0,1-.28,1.48,3.56,3.56,0,0,1-.54,1.33,10.69,10.69,0,0,1-1.06,1.33l-1.72,1.92-1.73,1.92a10.33,10.33,0,0,1-1.19,1.18h-4a1.55,1.55,0,0,1-.77-.37c-.35-.24-.61-.42-.78-.51-.26-.3-.62-.69-1.1-1.19s-.92-1-1.35-1.47-1-1.14-1.55-1.92q.09-9.16.1-18.32c0-.1-.22-.37-.66-.82s-.74-.76-.92-1a2.82,2.82,0,0,0-.85-.59,2.25,2.25,0,0,0-.85-.3c-1-.09-1.58-.14-1.84-.14a31,31,0,0,0-5.65.51,29.47,29.47,0,0,1-5.52.52h-.78c-.36-.1-1-.25-1.78-.44a8.07,8.07,0,0,1-1.51-.45,9.91,9.91,0,0,0-1.19-1,8.22,8.22,0,0,1-1.19-1c-.09-.1-.29-.34-.59-.74s-.65-.83-1-1.32l-1-1.41c-.31-.44-.55-.81-.73-1.11s-.25-.49-.47-.88a2.18,2.18,0,0,1-.34-.89c0-.44,0-.89,0-1.33s0-1,0-1.48c.08-.29.21-.79.38-1.48a4.3,4.3,0,0,1,.38-1.18,16.07,16.07,0,0,1,1.23-1.55c.56-.64,1.13-1.31,1.69-2s1.1-1.31,1.62-1.85a6,6,0,0,1,1-1,7.08,7.08,0,0,1,2-.45l2.9-.44c.17,0,.64,0,1.38-.15s1.54-.22,2.37-.36,1.61-.28,2.31-.37a13.2,13.2,0,0,1,1.32-.15,9.6,9.6,0,0,0,1.32-.15l1.78-.29,1.58-.3a5.87,5.87,0,0,1,1-.15,4,4,0,0,0,.66-.14l1-.3,1-.3a2.9,2.9,0,0,1,.59-.14C623.27,480.47,623.66,480.49,624.28,480.54Z" fill="#f1f9fa"/><path d="M594.48,568.09c.11-1.38.23-2.84.35-4.36s.23-3,.34-4.36.22-2.36.31-3c0-.39.06-1,.16-1.77s.2-1.62.3-2.51.2-1.7.3-2.44a13.5,13.5,0,0,0,.15-1.55,18,18,0,0,1,1.76-5.84,38.18,38.18,0,0,1,3.18-5.09,3.79,3.79,0,0,1,.73-.89c.39-.4.68-.69.86-.89l1.77-1.48a19.82,19.82,0,0,0,1.51-1.33c.35-.19.92-.54,1.71-1a4.78,4.78,0,0,1,1.44-.74l1-.07c.61,0,1.09-.08,1.44-.08s.7,0,1.31.08l1,.07a4.1,4.1,0,0,1,.78.22c.43.15.91.32,1.43.52l1.56.59,1.17.44.84.52a4.24,4.24,0,0,1,.71.52l1.54,1.7c.77.83,1.56,1.72,2.37,2.66l2.37,2.73,1.65,1.92c.08.19.32.64.69,1.33l.82,1.48a30.19,30.19,0,0,1,1.36,3.1,14.82,14.82,0,0,1,.84,3.25,4.73,4.73,0,0,0,.11.81c.07.44.17.93.28,1.48s.21,1,.29,1.47.11.72.11.82a3.09,3.09,0,0,0,.23.81,3.47,3.47,0,0,0,.5,1,2.28,2.28,0,0,0,.37.59c.17.2.29.3.38.3a3.41,3.41,0,0,0,.77.14,4.94,4.94,0,0,0,2.55-.66q1.13-.67,2.31-1.26a3.11,3.11,0,0,0,.72-.29c.39-.2.83-.4,1.31-.6s.92-.39,1.32-.59a2.43,2.43,0,0,1,.72-.29l1.19-.74a23.49,23.49,0,0,1,2-1.18l2-1.11,1.18-.67a8.65,8.65,0,0,1,1.44-.44c.79-.2,1.4-.35,1.84-.44h.77l1.29.44a8.64,8.64,0,0,1,1.16.44q.25.15,1.14.81a9.72,9.72,0,0,1,1.14,1l.75.89q.12.3.36,1a3,3,0,0,0,.48,1c.15.59.43,1.45.82,2.58a10.27,10.27,0,0,1,.58,2l-.06,1.77c0,.59-.05,1.18-.07,1.77a4.32,4.32,0,0,1-.29.89,3.33,3.33,0,0,1-.56,1,4.3,4.3,0,0,0-.62,1c-.24.49-.49,1-.77,1.47s-.53.94-.76,1.33a6.38,6.38,0,0,1-.48.74c0,.1-.12.25-.34.44a4.3,4.3,0,0,0-.47.45c-.54.39-1.31.93-2.33,1.62a7,7,0,0,1-1.79,1,5.27,5.27,0,0,1-1.3.29c-.69.1-1.45.18-2.27.23s-1.57.12-2.26.22-1.13.15-1.3.15a5.68,5.68,0,0,0-.91.22l-1.83.51-2.09.6a11.71,11.71,0,0,0-1.7.59,9.81,9.81,0,0,1-1.57.51l-2.8.82c-1,.29-1.94.59-2.81.89a7.39,7.39,0,0,1-1.69.44c-.26.1-.7.24-1.3.44s-1.27.39-2,.59-1.35.37-1.95.52a5.9,5.9,0,0,0-1.18.37,15.22,15.22,0,0,0-1.88.37c-1.08.25-1.8.42-2.14.52a7.11,7.11,0,0,0-.85.15l-1.49.29-1.55.3c-.52.09-.83.15-.91.15a2.42,2.42,0,0,0-.59.14l-1,.3-1,.29a3.63,3.63,0,0,1-.65.15,4.42,4.42,0,0,0-.72.15l-1.23.3c-.43.09-.84.19-1.23.29a4.42,4.42,0,0,1-.72.15,7.9,7.9,0,0,1-1.17.44c-.61.2-1,.35-1.3.45a3.4,3.4,0,0,1-.73.44c-.39.2-.83.39-1.3.59s-.92.39-1.31.59a2.61,2.61,0,0,1-.72.3c-.09,0-.37,0-.84.07s-.84.08-1.09.08-.65,0-1.16-.08-.81-.07-.9-.07l-1.45-.81a6.19,6.19,0,0,1-1.58-1.11,4.16,4.16,0,0,1-.81-.81l-.81-1c-.16-.4-.44-1.06-.84-2a7.48,7.48,0,0,1-.6-1.7c0-1.68.08-2.71.09-3.1s0-1.14.05-1.92,0-1.24,0-1.33c.09-.3.35-.92.76-1.85a8.21,8.21,0,0,1,.88-1.7C594.29,570.45,594.36,569.46,594.48,568.09Zm17.86-18-.85.44a2.88,2.88,0,0,0-.72.44c-.09,0-.22.25-.41.74s-.32.84-.41,1a5.76,5.76,0,0,0-.54,1.47,10.88,10.88,0,0,1-.42,1.33c0,.4,0,.79,0,1.19l0,1.47a7.38,7.38,0,0,0,.1,1.26c.07.54.17,1.11.28,1.7s.21,1.13.29,1.62.11.79.11.89a.83.83,0,0,0,.25.44,1.87,1.87,0,0,0,.5.45,3,3,0,0,0,.83.59,2.54,2.54,0,0,1,.7.44h1.55a6.82,6.82,0,0,0,1.17-.15c.52-.1,1-.22,1.56-.37s1-.27,1.44-.37a5.51,5.51,0,0,1,.78-.15,3.59,3.59,0,0,0,.8-.88,3.39,3.39,0,0,0,.54-1,3.33,3.33,0,0,0,.28-.82,7.11,7.11,0,0,0-.22-1.32,6.34,6.34,0,0,0-.48-1.48,8.92,8.92,0,0,1-.56-1.26c-.2-.54-.43-1.11-.67-1.7s-.47-1.13-.68-1.62a5.16,5.16,0,0,0-.43-.89,8.27,8.27,0,0,0-1-1.33,11.31,11.31,0,0,0-1.28-1.33l-.83-.51a1.91,1.91,0,0,0-.84-.37.88.88,0,0,0-.39-.15A1,1,0,0,0,612.34,550.06Z" fill="#f1f9fa"/></svg>